 http://www.imdb.com/title/tt0963178/

Source: The.International.2009.720p.BluRay.DTS.x264-DON Thanks!

Subs: Arabic, Brazilian, Bulgarian, Croatian, Danish, Dutch, English, Estonian, Greek, Hebrew, Hungarian, Persian, Polish, Portuguese, Romanian, Slovenian, Spanish, Swedish and Vietnamese.

Sample and Screens included.

General
Complete name                            : The International-720p MP4 AAC x264 BRRip 2009-CC.mp4
Format                                   : MPEG-4
Format profile                           : Base Media
Codec ID                                 : isom
File size                                : 3.09 GiB
Duration                                 : 1h 58mn
Overall bit rate mode                    : Variable
Overall bit rate                         : 3 745 Kbps
Encoded date                             : UTC 2012-10-29 18:22:04

Video
ID                                       : 1
Format                                   : AVC
Format/Info                              : Advanced Video Codec
Format profile                           : High@L4.1
Format settings, CABAC                   : Yes
Format settings, ReFrames                : 5 frames
Codec ID                                 : avc1
Codec ID/Info                            : Advanced Video Coding
Duration                                 : 1h 58mn
Source duration                          : 1h 58mn
Bit rate                                 : 3 378 Kbps
Maximum bit rate                         : 12.0 Mbps
Width                                    : 1 280 pixels
Height                                   : 528 pixels
Display aspect ratio                     : 2.40:1
Frame rate mode                          : Variable
Frame rate                               : 23.976 fps
Minimum frame rate                       : 15.873 fps
Maximum frame rate                       : 24.390 fps
Color space                              : YUV
Chroma subsampling                       : 4:2:0
Bit depth                                : 8 bits
Scan type                                : Progressive
Bits/(Pixel*Frame)                       : 0.209
Stream size                              : 2.77 GiB (90%)
Source stream size                       : 2.77 GiB (90%)
Writing library                          : x264 core 112

Audio
ID                                       : 2
Format                                   : AAC
Format/Info                              : Advanced Audio Codec
Format profile                           : LC
Codec ID                                 : 40
Duration                                 : 1h 58mn
Bit rate mode                            : Variable
Bit rate                                 : 384 Kbps
Maximum bit rate                         : 755 Kbps
Channel(s)                               : 6 channels
Channel positions                        : Front: L C R, Side: L R, LFE
Sampling rate                            : 48.0 KHz
Compression mode                         : Lossy
Delay relative to video                  : 105ms
Stream size                              : 324 MiB (10%)
Language                                 : English

Enjoy...

Requested by majmi

Coming soon: The Horse Whisperer, Monster Ball, Air America, 21 Grams and more...